<!-- behavior_model.py source=InputResolutionSm.puml source-sha256=bd9dfa3392ba839ed71bde1c3415e60ef4bd16ae0abb5a04c19fb31fe3b4dd8a plantuml=1.2026.8 svg-sha256=01aa1834159fa00c679c700153071305e95f4e213ed06250176abebad0949196 -->
<svg xmlns="http://www.w3.org/2000/svg" xmlns:xlink="http://www.w3.org/1999/xlink" version="1.1" data-diagram-type="STATE" style="width:3781px;height:1394px;background:#FFFFFF;" width="3781px" height="1394px" viewBox="0 0 3781 1394" zoomAndPan="magnify" preserveAspectRatio="none" contentStyleType="text/css"><?plantuml 1.2026.8?><defs/><g font-family="sans-serif" lengthAdjust="spacing"><!--cluster Resolving--><g class="cluster" data-qualified-name="Resolving" id="ent0001" data-source-line="17"><path d="M233.413,4 L3437.413,4 A12.5,12.5 0 0 1 3449.913,16.5 L3449.913,26.609 L220.913,26.609 L220.913,16.5 A12.5,12.5 0 0 1 233.413,4" fill="#F1F1F1"/><rect x="220.913" y="26.609" width="3229" height="145.875" fill="#F1F1F1" style="stroke:#F1F1F1;stroke-width:1;"/><rect x="220.913" y="4" width="3229" height="1366" fill="none" style="stroke:#181818;stroke-width:0.5;" rx="12.5" ry="12.5"/><line x1="220.913" y1="26.609" x2="3449.913" y2="26.609" style="stroke:#181818;stroke-width:0.5;"/><line x1="220.913" y1="172.484" x2="3449.913" y2="172.484" style="stroke:#181818;stroke-width:0.5;"/><text x="1804.675" y="18.533" fill="#000" font-size="14" textLength="61.476">Resolving</text><text x="225.913" y="43.643" fill="#000" font-size="14" textLength="574.246">B0_RELEASE [inp_release_is(INP_RELEASE_SHIFT_PENDING)] / inp_fire_shift_release();</text><text x="225.913" y="61.252" fill="#000" font-size="14" textLength="520.536">B0_RELEASE [!inp_release_is(INP_RELEASE_SHIFT_PENDING)] / inp_swallow();</text><text x="225.913" y="78.861" fill="#000" font-size="14" textLength="515.129">B1_RELEASE [inp_release_is(INP_RELEASE_DELIVERED)] / inp_emit_release();</text><text x="225.913" y="96.471" fill="#000" font-size="14" textLength="574.246">B1_RELEASE [inp_release_is(INP_RELEASE_SHIFT_PENDING)] / inp_fire_shift_release();</text><text x="225.913" y="114.08" fill="#000" font-size="14" textLength="755.036">B1_RELEASE [inp_release_is(INP_RELEASE_SWALLOWED) || inp_release_is(INP_RELEASE_CLICK)] / inp_swallow();</text><text x="225.913" y="131.689" fill="#000" font-size="14" textLength="182.075">E_RELEASE / inp_swallow();</text><text x="225.913" y="149.299" fill="#000" font-size="14" textLength="189.861">E3_RELEASE / inp_swallow();</text><text x="225.913" y="166.908" fill="#000" font-size="14" textLength="139.248">TURN / inp_swallow();</text></g><!--cluster Shift--><g class="cluster" data-qualified-name="Resolving.Shift" id="ent0003" data-source-line="20"><path d="M438.413,899 L1213.413,899 A12.5,12.5 0 0 1 1225.913,911.5 L1225.913,921.609 L425.913,921.609 L425.913,911.5 A12.5,12.5 0 0 1 438.413,899" fill="#F1F1F1"/><rect x="425.913" y="921.609" width="800" height="128.266" fill="#F1F1F1" style="stroke:#F1F1F1;stroke-width:1;"/><rect x="425.913" y="899" width="800" height="455" fill="none" style="stroke:#181818;stroke-width:0.5;" rx="12.5" ry="12.5"/><line x1="425.913" y1="921.609" x2="1225.913" y2="921.609" style="stroke:#181818;stroke-width:0.5;"/><line x1="425.913" y1="1049.875" x2="1225.913" y2="1049.875" style="stroke:#181818;stroke-width:0.5;"/><text x="811.906" y="913.533" fill="#000" font-size="14" textLength="28.014">Shift</text><text x="430.913" y="938.643" fill="#000" font-size="14" textLength="310.447">enter / inp_publish(INP_PUB_SHIFT_ENTERED);</text><text x="430.913" y="956.252" fill="#000" font-size="14" textLength="267.654">exit / inp_publish(INP_PUB_SHIFT_LEFT);</text><text x="430.913" y="973.861" fill="#000" font-size="14" textLength="172.737">B0_PRESS / inp_swallow();</text><text x="430.913" y="991.471" fill="#000" font-size="14" textLength="172.737">B1_PRESS / inp_swallow();</text><text x="430.913" y="1009.08" fill="#000" font-size="14" textLength="172.737">E0_PRESS / inp_swallow();</text><text x="430.913" y="1026.689" fill="#000" font-size="14" textLength="164.951">E_PRESS / inp_swallow();</text><text x="430.913" y="1044.299" fill="#000" font-size="14" textLength="172.737">E3_PRESS / inp_swallow();</text></g><!--cluster Btn0Held--><g class="cluster" data-qualified-name="Resolving.Btn0Held" id="ent0008" data-source-line="26"><path d="M1446.413,194 L3421.413,194 A12.5,12.5 0 0 1 3433.913,206.5 L3433.913,216.609 L1433.913,216.609 L1433.913,206.5 A12.5,12.5 0 0 1 1446.413,194" fill="#F1F1F1"/><rect x="1433.913" y="216.609" width="2000" height="75.438" fill="#F1F1F1" style="stroke:#F1F1F1;stroke-width:1;"/><rect x="1433.913" y="194" width="2000" height="602" fill="none" style="stroke:#181818;stroke-width:0.5;" rx="12.5" ry="12.5"/><line x1="1433.913" y1="216.609" x2="3433.913" y2="216.609" style="stroke:#181818;stroke-width:0.5;"/><line x1="1433.913" y1="292.047" x2="3433.913" y2="292.047" style="stroke:#181818;stroke-width:0.5;"/><text x="2405.116" y="208.533" fill="#000" font-size="14" textLength="57.593">Btn0Held</text><text x="1438.913" y="233.643" fill="#000" font-size="14" textLength="172.737">B1_PRESS / inp_swallow();</text><text x="1438.913" y="251.252" fill="#000" font-size="14" textLength="172.737">E0_PRESS / inp_swallow();</text><text x="1438.913" y="268.861" fill="#000" font-size="14" textLength="164.951">E_PRESS / inp_swallow();</text><text x="1438.913" y="286.471" fill="#000" font-size="14" textLength="172.737">E3_PRESS / inp_swallow();</text></g><!--cluster Prompt--><g class="cluster" data-qualified-name="Resolving.Btn0Held.Prompt" id="ent0010" data-source-line="29"><path d="M1462.413,496 L2305.413,496 A12.5,12.5 0 0 1 2317.913,508.5 L2317.913,518.609 L1449.913,518.609 L1449.913,508.5 A12.5,12.5 0 0 1 1462.413,496" fill="#F1F1F1"/><rect x="1449.913" y="496" width="868" height="115" fill="none" style="stroke:#181818;stroke-width:0.5;" rx="12.5" ry="12.5"/><line x1="1449.913" y1="518.609" x2="2317.913" y2="518.609" style="stroke:#181818;stroke-width:0.5;"/><text x="1861.351" y="510.533" fill="#000" font-size="14" textLength="45.124">Prompt</text></g><g class="start_entity" data-qualified-name=".start." id="ent0014" data-source-line="15"><ellipse cx="194.913" cy="410.5" rx="10" ry="10" fill="#222" style="stroke:#222;stroke-width:1;"/></g><g class="entity" data-qualified-name="GMN43" id="ent0044" data-source-line="127"><path d="M3466.413,375 L3466.413,408.5 L1843.765,412.5 L3466.413,416.5 L3466.413,450.406 A0,0 0 0 0 3466.413,450.406 L3775.768,450.406 A0,0 0 0 0 3775.768,450.406 L3775.768,385 L3765.768,375 L3466.413,375 A0,0 0 0 0 3466.413,375" style="stroke:#181818;stroke-width:0.5;" fill="#FEFFDD"/><path d="M3765.768,375 L3765.768,385 L3775.768,385 L3765.768,375" style="stroke:#181818;stroke-width:0.5;" fill="#FEFFDD"/><text x="3472.413" y="393.495" fill="#000" font-size="13" textLength="257.22">Which prompt opens in Armed or Reviewing:</text><text x="3472.413" y="409.847" fill="#000" font-size="13" textLength="288.355">full_spooky_proto-hpq.2, full_spooky_proto-hpq.3.</text><text x="3472.413" y="426.198" fill="#000" font-size="13" textLength="258.711">Hold thresholds stay configurable until bench</text><text x="3472.413" y="442.55" fill="#000" font-size="13" textLength="216.036">trials set them (decision 0009 item 7).</text></g><g class="entity" data-qualified-name="Resolving.Neutral" id="ent0002" data-source-line="19"><rect x="242.913" y="657" width="478.309" height="196.094" fill="#F1F1F1" style="stroke:#181818;stroke-width:0.5;" rx="12.5" ry="12.5"/><line x1="242.913" y1="684.609" x2="721.221" y2="684.609" style="stroke:#181818;stroke-width:0.5;"/><text x="459.501" y="676.533" fill="#000" font-size="14" textLength="45.131">Neutral</text><text x="247.913" y="704.143" fill="#000" font-size="14" textLength="417.874">B0_PRESS [!inp_shift_armed() &amp;&amp; !inp_on_page()] / inp_swallow();</text><text x="247.913" y="721.752" fill="#000" font-size="14" textLength="316.688">B1_PRESS [!inp_shift_armed()] / inp_emit_press();</text><text x="247.913" y="739.361" fill="#000" font-size="14" textLength="324.495">E0_PRESS [!inp_shift_armed()] / inp_begin_press();</text><text x="247.913" y="756.971" fill="#000" font-size="14" textLength="316.709">E_PRESS [!inp_shift_armed()] / inp_begin_press();</text><text x="247.913" y="774.58" fill="#000" font-size="14" textLength="199.999">E3_PRESS / inp_begin_press();</text><text x="247.913" y="792.189" fill="#000" font-size="14" textLength="450.522">E_RELEASE [inp_release_is(INP_RELEASE_CLICK)] / inp_emit_click();</text><text x="247.913" y="809.799" fill="#000" font-size="14" textLength="458.309">E3_RELEASE [inp_release_is(INP_RELEASE_CLICK)] / inp_emit_click();</text><text x="247.913" y="827.408" fill="#000" font-size="14" textLength="322.137">TURN / inp_cancel_turned_press(); inp_emit_turn();</text><text x="247.913" y="845.018" fill="#000" font-size="14" textLength="421.784">HOLD [!inp_hold_is_shift()] / inp_emit_hold(); inp_cancel_pending();</text></g><g class="start_entity" data-qualified-name="Resolving..start.Resolving" id="ent0016" data-source-line="18"><ellipse cx="411.913" cy="565.5" rx="10" ry="10" fill="#222" style="stroke:#222;stroke-width:1;"/></g><g class="entity" data-qualified-name="Resolving.Shift.ShiftReady" id="ent0004" data-source-line="21"><rect x="781.913" y="1071" width="195.848" height="55.219" fill="#F1F1F1" style="stroke:#181818;stroke-width:0.5;" rx="12.5" ry="12.5"/><line x1="781.913" y1="1098.609" x2="977.76" y2="1098.609" style="stroke:#181818;stroke-width:0.5;"/><text x="845.595" y="1090.533" fill="#000" font-size="14" textLength="68.482">ShiftReady</text><text x="786.913" y="1118.143" fill="#000" font-size="14" textLength="175.848">E_PRESS / inp_emit_shift();</text></g><g class="entity" data-qualified-name="Resolving.Shift.ShiftButton0" id="ent0005" data-source-line="22"><rect x="928.913" y="1182" width="96.275" height="50" fill="#F1F1F1" style="stroke:#181818;stroke-width:0.5;" rx="12.5" ry="12.5"/><line x1="928.913" y1="1209.609" x2="1025.188" y2="1209.609" style="stroke:#181818;stroke-width:0.5;"/><text x="938.913" y="1201.533" fill="#000" font-size="14" textLength="76.275">ShiftButton0</text></g><g class="entity" data-qualified-name="Resolving.Shift.ShiftButton1" id="ent0006" data-source-line="23"><rect x="651.913" y="1182" width="96.275" height="50" fill="#F1F1F1" style="stroke:#181818;stroke-width:0.5;" rx="12.5" ry="12.5"/><line x1="651.913" y1="1209.609" x2="748.188" y2="1209.609" style="stroke:#181818;stroke-width:0.5;"/><text x="661.913" y="1201.533" fill="#000" font-size="14" textLength="76.275">ShiftButton1</text></g><g class="entity" data-qualified-name="Resolving.Shift.ShiftSpent" id="ent0007" data-source-line="24"><rect x="735.413" y="1288" width="84.6" height="50" fill="#F1F1F1" style="stroke:#181818;stroke-width:0.5;" rx="12.5" ry="12.5"/><line x1="735.413" y1="1315.609" x2="820.012" y2="1315.609" style="stroke:#181818;stroke-width:0.5;"/><text x="745.413" y="1307.533" fill="#000" font-size="14" textLength="64.6">ShiftSpent</text></g><g class="entity" data-qualified-name="Resolving.Btn0Held.Pending" id="ent0009" data-source-line="28"><rect x="1772.413" y="387.5" width="71.379" height="50" fill="#F1F1F1" style="stroke:#181818;stroke-width:0.5;" rx="12.5" ry="12.5"/><line x1="1772.413" y1="415.109" x2="1843.792" y2="415.109" style="stroke:#181818;stroke-width:0.5;"/><text x="1782.413" y="407.033" fill="#000" font-size="14" textLength="51.379">Pending</text></g><g class="entity" data-qualified-name="Resolving.Btn0Held.Consumed" id="ent0013" data-source-line="33"><rect x="1876.913" y="730" width="87.703" height="50" fill="#F1F1F1" style="stroke:#181818;stroke-width:0.5;" rx="12.5" ry="12.5"/><line x1="1876.913" y1="757.609" x2="1964.616" y2="757.609" style="stroke:#181818;stroke-width:0.5;"/><text x="1886.913" y="749.533" fill="#000" font-size="14" textLength="67.703">Consumed</text></g><g class="start_entity" data-qualified-name="Resolving.Btn0Held..start.Btn0Held" id="ent0018" data-source-line="27"><ellipse cx="1807.913" cy="324" rx="10" ry="10" fill="#222" style="stroke:#222;stroke-width:1;"/></g><g class="entity" data-qualified-name="Resolving.Btn0Held.Prompt.StartPrompt" id="ent0011" data-source-line="30"><rect x="1499.913" y="540" width="395.799" height="55.219" fill="#F1F1F1" style="stroke:#181818;stroke-width:0.5;" rx="12.5" ry="12.5"/><line x1="1499.913" y1="567.609" x2="1895.711" y2="567.609" style="stroke:#181818;stroke-width:0.5;"/><text x="1660.467" y="559.533" fill="#000" font-size="14" textLength="74.689">StartPrompt</text><text x="1504.913" y="587.143" fill="#000" font-size="14" textLength="375.799">enter / inp_publish(INP_PUB_PROMPT_OPENED_START);</text></g><g class="entity" data-qualified-name="Resolving.Btn0Held.Prompt.StopPrompt" id="ent0012" data-source-line="31"><rect x="1913.913" y="540" width="388.026" height="55.219" fill="#F1F1F1" style="stroke:#181818;stroke-width:0.5;" rx="12.5" ry="12.5"/><line x1="1913.913" y1="567.609" x2="2301.939" y2="567.609" style="stroke:#181818;stroke-width:0.5;"/><text x="2070.964" y="559.533" fill="#000" font-size="14" textLength="73.924">StopPrompt</text><text x="1918.913" y="587.143" fill="#000" font-size="14" textLength="368.026">enter / inp_publish(INP_PUB_PROMPT_OPENED_STOP);</text></g><g class="link" data-entity-1="ent0014" data-entity-2="ent0001" id="lnk15" data-link-type="dependency"><polygon points="220.801,485.518,221.521,475.695,219.11,480.813,213.993,478.402,220.801,485.518" fill="#181818" style="stroke:#181818;stroke-width:1;stroke-linejoin:miter;stroke-miterlimit:10;"/><path d="M198.868,424.503 C201.393,431.527 204.952,441.429 209.031,452.776 C211.071,458.449 213.24,464.484 215.475,470.7 C216.592,473.808 217.726,476.962 218.868,480.139 C219.439,481.727 220.012,483.322 220.586,484.919 C220.658,485.118 219.038,480.613 219.11,480.813" style="stroke:#181818;stroke-width:1;" fill="none"/></g><g class="link" data-entity-1="ent0016" data-entity-2="ent0002" id="lnk17" data-link-type="dependency"><polygon points="460.348,656.699,461.724,646.947,458.975,651.891,454.031,649.143,460.348,656.699" fill="#181818" style="stroke:#181818;stroke-width:1;stroke-linejoin:miter;stroke-miterlimit:10;"/><path d="M416.783,579.71 C421.033,588.737 427.785,601.449 435.913,611 C439.601,615.335 442.801,614.234 445.913,619 C450.719,626.363 454.318,635.575 458.975,651.891" style="stroke:#181818;stroke-width:1;" fill="none"/></g><g class="link" data-entity-1="ent0018" data-entity-2="ent0009" id="lnk19" data-link-type="dependency"><polygon points="1807.913,387.289,1811.913,378.289,1807.913,382.289,1803.913,378.289,1807.913,387.289" fill="#181818" style="stroke:#181818;stroke-width:1;stroke-linejoin:miter;stroke-miterlimit:10;"/><path d="M1807.913,338.047 C1807.913,350.483 1807.913,366.07 1807.913,382.289" style="stroke:#181818;stroke-width:1;" fill="none"/></g><g class="link" data-entity-1="ent0001" data-entity-2="ent0002" id="lnk20" data-link-type="dependency"><polygon points="265.274,656.932,262.442,647.5,262.015,653.14,256.374,652.714,265.274,656.932" fill="#181818" style="stroke:#181818;stroke-width:1;stroke-linejoin:miter;stroke-miterlimit:10;"/><path d="M246.981,579.528 C243.724,594.322 240.324,620.831 251.913,639 C255.934,645.305 257.154,647.485 262.015,653.14" style="stroke:#181818;stroke-width:1;" fill="none"/><text x="253.913" y="634.495" fill="#000" font-size="13" textLength="186.405">RECONCILE / inp_release_all();</text></g><g class="link" data-entity-1="ent0002" data-entity-2="ent0005" id="lnk21" data-link-type="dependency"><polygon points="1025.155,1183.104,1034.938,1184.24,1029.927,1181.614,1032.553,1176.603,1025.155,1183.104" fill="#181818" style="stroke:#181818;stroke-width:1;stroke-linejoin:miter;stroke-miterlimit:10;"/><path d="M721.041,761.88 C905.951,772.066 1140.479,799.242 1201.913,871 C1223.085,895.731 1224.716,1139.824 1202.913,1164 C1176.878,1192.867 1066.401,1171.716 1028.913,1182 C1027.666,1182.342 1031.185,1181.221 1029.927,1181.614" style="stroke:#181818;stroke-width:1;" fill="none"/><text x="1220.913" y="1103.995" fill="#000" font-size="13" textLength="471.872">B0_PRESS [inp_shift_armed()] / inp_cancel_pending(); inp_mark_shift_pending();</text></g><g class="link" data-entity-1="ent0002" data-entity-2="ent0009" id="lnk22" data-link-type="dependency"><polygon points="1772.11,413.786,1763.06,409.9,1767.11,413.849,1763.161,417.9,1772.11,413.786" fill="#181818" style="stroke:#181818;stroke-width:1;stroke-linejoin:miter;stroke-miterlimit:10;"/><path d="M455.226,656.782 C456.074,643.207 459.766,630.12 467.913,619 C575.073,472.727 679.072,531.382 856.913,496 C1208.809,425.988 1640.674,415.453 1767.11,413.849" style="stroke:#181818;stroke-width:1;" fill="none"/><text x="858.913" y="572.995" fill="#000" font-size="13" textLength="585.362">B0_PRESS [!inp_shift_armed() &amp;&amp; inp_on_page()] / inp_cancel_pending(); inp_begin_session_hold();</text></g><g class="link" data-entity-1="ent0002" data-entity-2="ent0006" id="lnk23" data-link-type="dependency"><polygon points="651.624,1183.371,644.231,1176.864,646.853,1181.877,641.84,1184.499,651.624,1183.371" fill="#181818" style="stroke:#181818;stroke-width:1;stroke-linejoin:miter;stroke-miterlimit:10;"/><path d="M277.717,853.484 C273.054,859.023 268.76,864.857 264.913,871 C227.405,930.881 0,806.923 263.913,1126 C318.735,1192.282 563.818,1159.774 646.913,1182 C648.474,1182.418 645.275,1181.383 646.853,1181.877" style="stroke:#181818;stroke-width:1;" fill="none"/><text x="265.913" y="1103.995" fill="#000" font-size="13" textLength="471.872">B1_PRESS [inp_shift_armed()] / inp_cancel_pending(); inp_mark_shift_pending();</text></g><g class="link" data-entity-1="ent0002" data-entity-2="ent0007" id="lnk24" data-link-type="dependency"><polygon points="820.429,1310.532,829.583,1314.163,825.424,1310.329,829.259,1306.17,820.429,1310.532" fill="#181818" style="stroke:#181818;stroke-width:1;stroke-linejoin:miter;stroke-miterlimit:10;"/><path d="M721.081,780.114 C1070.674,815.922 1681.8,880.882 1697.913,899 C1764.957,974.39 1758.43,1045.277 1697.913,1126 C1590.269,1269.583 991.856,1303.578 825.424,1310.329" style="stroke:#181818;stroke-width:1;" fill="none"/><text x="1682.913" y="1159.495" fill="#000" font-size="13" textLength="414.045">E0_PRESS [inp_shift_armed()] / inp_cancel_pending(); inp_emit_shift();</text></g><g class="link" data-entity-1="ent0002" data-entity-2="ent0004" id="lnk25" data-link-type="dependency"><polygon points="874.455,1070.737,876.249,1061.053,873.29,1065.875,868.469,1062.916,874.455,1070.737" fill="#181818" style="stroke:#181818;stroke-width:1;stroke-linejoin:miter;stroke-miterlimit:10;"/><path d="M465.242,853.2 C467.438,867.352 472.741,880.621 482.913,891 C494.194,902.511 759.189,890.548 772.913,899 C835.416,937.493 862.597,1021.221 873.29,1065.875" style="stroke:#181818;stroke-width:1;" fill="none"/><text x="484.913" y="886.495" fill="#000" font-size="13" textLength="406.815">E_PRESS [inp_shift_armed()] / inp_cancel_pending(); inp_emit_shift();</text></g><g class="link" data-entity-1="ent0002" data-entity-2="ent0004" id="lnk26" data-link-type="dependency"><polygon points="891.506,1070.9,898.519,1063.985,893.334,1066.246,891.072,1061.061,891.506,1070.9" fill="#181818" style="stroke:#181818;stroke-width:1;stroke-linejoin:miter;stroke-miterlimit:10;"/><path d="M721.022,797.286 C798.122,815.807 869.738,840.451 892.913,871 C937.785,930.151 911.355,1020.343 893.334,1066.246" style="stroke:#181818;stroke-width:1;" fill="none"/><text x="904.913" y="886.495" fill="#000" font-size="13" textLength="291.218">HOLD [inp_hold_is_shift()] / inp_cancel_pending();</text></g><g class="link" data-entity-1="ent0003" data-entity-2="ent0002" id="lnk27" data-link-type="dependency"><polygon points="268.997,853.175,261.991,860.097,267.174,857.831,269.441,863.014,268.997,853.175" fill="#181818" style="stroke:#181818;stroke-width:1;stroke-linejoin:miter;stroke-miterlimit:10;"/><path d="M743.676,898.793 C743.591,898.725 743.499,898.657 743.402,898.59 C743.207,898.457 742.987,898.326 742.744,898.197 C742.256,897.941 741.672,897.695 740.995,897.46 C739.64,896.99 737.91,896.562 735.832,896.173 C731.675,895.396 726.121,894.776 719.371,894.29 C705.869,893.319 687.579,892.887 666.099,892.812 C623.138,892.663 567.414,893.944 511.708,895.208 C400.294,897.735 288.949,900.193 279.913,891 C266.903,877.764 262.509,869.746 267.174,857.831" style="stroke:#181818;stroke-width:1;" fill="none"/><text x="281.913" y="886.495" fill="#000" font-size="13" textLength="176.3">E3_RELEASE / inp_swallow();</text></g><g class="link" data-entity-1="ent0004" data-entity-2="ent0007" id="lnk28" data-link-type="dependency"><polygon points="735.389,1307.388,726.935,1302.335,730.425,1306.787,725.973,1310.277,735.389,1307.388" fill="#181818" style="stroke:#181818;stroke-width:1;stroke-linejoin:miter;stroke-miterlimit:10;"/><path d="M781.807,1124.544 C778.815,1125.068 775.845,1125.556 772.913,1126 C738.8,1131.169 486.592,1118.906 462.913,1144 C449.73,1157.97 432.7,1184.629 468.913,1232 C501.179,1274.209 653.505,1297.468 730.425,1306.787" style="stroke:#181818;stroke-width:1;" fill="none"/><text x="470.913" y="1212.495" fill="#000" font-size="13" textLength="170.517">E0_PRESS / inp_emit_shift();</text></g><g class="link" data-entity-1="ent0004" data-entity-2="ent0005" id="lnk29" data-link-type="dependency"><polygon points="972.949,1181.958,974.709,1172.268,971.767,1177.1,966.935,1174.158,972.949,1181.958" fill="#181818" style="stroke:#181818;stroke-width:1;stroke-linejoin:miter;stroke-miterlimit:10;"/><path d="M936.306,1126.117 C943.585,1131.291 950.407,1137.244 955.913,1144 C964.744,1154.835 968.755,1164.713 971.767,1177.1" style="stroke:#181818;stroke-width:1;" fill="none"/><text x="968.913" y="1159.495" fill="#000" font-size="13" textLength="228.344">B0_PRESS / inp_mark_shift_pending();</text></g><g class="link" data-entity-1="ent0004" data-entity-2="ent0006" id="lnk30" data-link-type="dependency"><polygon points="702.194,1181.909,707.797,1173.808,703.123,1176.996,699.936,1172.322,702.194,1181.909" fill="#181818" style="stroke:#181818;stroke-width:1;stroke-linejoin:miter;stroke-miterlimit:10;"/><path d="M781.88,1124.826 C750.311,1133.346 722.655,1141.367 719.913,1144 C709.633,1153.869 705.556,1164.13 703.123,1176.996" style="stroke:#181818;stroke-width:1;" fill="none"/><text x="721.913" y="1159.495" fill="#000" font-size="13" textLength="228.344">B1_PRESS / inp_mark_shift_pending();</text></g><g class="link" data-entity-1="ent0005" data-entity-2="ent0007" id="lnk31" data-link-type="dependency"><polygon points="771.667,1287.766,774.397,1278.303,770.983,1282.813,766.473,1279.399,771.667,1287.766" fill="#181818" style="stroke:#181818;stroke-width:1;stroke-linejoin:miter;stroke-miterlimit:10;"/><path d="M928.522,1211.487 C876.142,1216.378 797.566,1227.351 778.913,1250 C770.426,1260.304 769.242,1270.22 770.983,1282.813" style="stroke:#181818;stroke-width:1;" fill="none"/><text x="780.913" y="1265.495" fill="#000" font-size="13" textLength="172.694">B1_PRESS / inp_fire_chord();</text></g><g class="link" data-entity-1="ent0005" data-entity-2="ent0007" id="lnk32" data-link-type="dependency"><polygon points="820.513,1306.628,829.99,1309.308,825.462,1305.917,828.853,1301.39,820.513,1306.628" fill="#181818" style="stroke:#181818;stroke-width:1;stroke-linejoin:miter;stroke-miterlimit:10;"/><path d="M973.941,1232.291 C971.12,1245.218 965.623,1260.388 954.913,1270 C935.345,1287.561 871.307,1299.335 825.462,1305.917" style="stroke:#181818;stroke-width:1;" fill="none"/><text x="969.913" y="1265.495" fill="#000" font-size="13" textLength="229.785">B0_RELEASE / inp_fire_shift_release();</text></g><g class="link" data-entity-1="ent0006" data-entity-2="ent0007" id="lnk33" data-link-type="dependency"><polygon points="735.003,1309.066,726.385,1304.297,730.022,1308.63,725.688,1312.267,735.003,1309.066" fill="#181818" style="stroke:#181818;stroke-width:1;stroke-linejoin:miter;stroke-miterlimit:10;"/><path d="M651.631,1227.057 C647.009,1228.77 642.382,1230.444 637.913,1232 C612.424,1240.877 595.921,1228.27 579.913,1250 C574.64,1257.157 574.317,1263.093 579.913,1270 C599.046,1293.618 677.761,1304.06 730.022,1308.63" style="stroke:#181818;stroke-width:1;" fill="none"/><text x="581.913" y="1265.495" fill="#000" font-size="13" textLength="172.694">B0_PRESS / inp_fire_chord();</text></g><g class="link" data-entity-1="ent0006" data-entity-2="ent0004" id="lnk34" data-link-type="dependency"><polygon points="781.806,1124.538,772.25,1122.156,776.882,1125.403,773.635,1130.036,781.806,1124.538" fill="#181818" style="stroke:#181818;stroke-width:1;stroke-linejoin:miter;stroke-miterlimit:10;"/><path d="M651.905,1186.014 C647.227,1184.492 642.511,1183.117 637.913,1182 C601.642,1173.187 495.852,1191.772 470.913,1164 C464.974,1157.386 464.817,1150.47 470.913,1144 C493.964,1119.534 739.681,1131.062 772.913,1126 C775.845,1125.553 773.89,1125.929 776.882,1125.403" style="stroke:#181818;stroke-width:1;" fill="none"/><text x="472.913" y="1159.495" fill="#000" font-size="13" textLength="229.785">B1_RELEASE / inp_fire_shift_release();</text></g><g class="link" data-entity-1="ent0008" data-entity-2="ent0002" id="lnk35" data-link-type="dependency"><polygon points="721.04,723.326,730.454,726.222,726.004,722.729,729.497,718.279,721.04,723.326" fill="#181818" style="stroke:#181818;stroke-width:1;stroke-linejoin:miter;stroke-miterlimit:10;"/><path d="M1433.663,656.916 C1433.271,656.921 1432.908,656.926 1432.573,656.932 C1431.232,656.954 1430.34,656.976 1429.913,657 C1187.913,670.455 917.395,699.679 726.004,722.729" style="stroke:#181818;stroke-width:1;" fill="none"/><text x="3401.913" y="483.495" fill="#000" font-size="13" textLength="176.3">B0_RELEASE / inp_swallow();</text></g><g class="link" data-entity-1="ent0009" data-entity-2="ent0011" id="lnk36" data-link-type="dependency"><polygon points="1717.109,539.799,1725.611,534.826,1720.028,535.739,1719.115,530.156,1717.109,539.799" fill="#181818" style="stroke:#181818;stroke-width:1;stroke-linejoin:miter;stroke-miterlimit:10;"/><path d="M1790.483,437.743 C1770.491,465.55 1740.733,506.94 1720.028,535.739" style="stroke:#181818;stroke-width:1;" fill="none"/><text x="1768.913" y="483.495" fill="#000" font-size="13" textLength="192.201">B0_HOLD [!inp_session_active()]</text></g><g class="link" data-entity-1="ent0009" data-entity-2="ent0012" id="lnk37" data-link-type="dependency"><polygon points="2078.674,539.948,2074.405,531.073,2074.863,536.711,2069.225,537.169,2078.674,539.948" fill="#181818" style="stroke:#181818;stroke-width:1;stroke-linejoin:miter;stroke-miterlimit:10;"/><path d="M1829.864,437.699 C1835.318,442.459 1841.463,446.925 1847.913,450 C1896.196,473.021 1917.237,448.162 1966.913,468 C2009.48,484.999 2047.883,513.789 2074.863,536.711" style="stroke:#181818;stroke-width:1;" fill="none"/><text x="2005.913" y="483.495" fill="#000" font-size="13" textLength="188.589">B0_HOLD [inp_session_active()]</text></g><g class="link" data-entity-1="ent0011" data-entity-2="ent0013" id="lnk38" data-link-type="dependency"><polygon points="1924.263,729.909,1929.061,721.308,1924.715,724.93,1921.093,720.585,1924.263,729.909" fill="#181818" style="stroke:#181818;stroke-width:1;stroke-linejoin:miter;stroke-miterlimit:10;"/><path d="M1848.553,595.052 C1871.503,601.749 1890.392,609.727 1898.913,619 C1926.627,649.164 1927.433,694.994 1924.715,724.93" style="stroke:#181818;stroke-width:1;" fill="none"/><text x="1912.913" y="634.495" fill="#000" font-size="13" textLength="740.499">E0_PRESS / inp_swallow(); inp_publish(INP_PUB_PROMPT_CONFIRMED_START); inp_issue(INP_CMD_START_SESSION);</text></g><g class="link" data-entity-1="ent0012" data-entity-2="ent0013" id="lnk39" data-link-type="dependency"><polygon points="1965.072,754.314,1974.072,758.314,1970.072,754.314,1974.073,750.314,1965.072,754.314" fill="#181818" style="stroke:#181818;stroke-width:1;stroke-linejoin:miter;stroke-miterlimit:10;"/><path d="M2302.282,573.424 C2453.339,579.318 2641.269,592.025 2665.913,619 C2671.908,625.563 2671.699,632.252 2665.913,639 C2574.334,745.8 2116.102,754.324 1970.072,754.314" style="stroke:#181818;stroke-width:1;" fill="none"/><text x="2671.913" y="634.495" fill="#000" font-size="13" textLength="726.064">E0_PRESS / inp_swallow(); inp_publish(INP_PUB_PROMPT_CONFIRMED_STOP); inp_issue(INP_CMD_STOP_SESSION);</text></g><g class="link" data-entity-1="ent0010" data-entity-2="ent0002" id="lnk40" data-link-type="dependency"><polygon points="465.016,656.971,470.332,648.681,465.773,652.029,462.425,647.47,465.016,656.971" fill="#181818" style="stroke:#181818;stroke-width:1;stroke-linejoin:miter;stroke-miterlimit:10;"/><path d="M1461.913,611 C1440.294,627.499 502.135,599.763 482.913,619 C472.558,629.362 467.957,637.769 465.773,652.029" style="stroke:#181818;stroke-width:1;" fill="none"/><text x="484.913" y="634.495" fill="#000" font-size="13" textLength="461.684">B0_RELEASE / inp_swallow(); inp_publish(INP_PUB_PROMPT_CANCELLED);</text></g><g class="link" data-entity-1="ent0010" data-entity-2="ent0002" id="lnk41" data-link-type="dependency"><polygon points="721.184,716.475,730.797,718.615,726.085,715.486,729.214,710.773,721.184,716.475" fill="#181818" style="stroke:#181818;stroke-width:1;stroke-linejoin:miter;stroke-miterlimit:10;"/><path d="M1461.913,611 C1439.584,628.176 977.758,602.519 954.913,619 C947.275,624.51 954.88,632.664 947.913,639 C912.851,670.888 821.844,696.154 726.085,715.486" style="stroke:#181818;stroke-width:1;" fill="none"/><text x="956.913" y="634.495" fill="#000" font-size="13" textLength="471.79">RECONCILE / inp_publish(INP_PUB_PROMPT_CANCELLED); inp_release_all();</text></g><g class="link" data-entity-1="ent0010" data-entity-2="ent0013" id="lnk42" data-link-type="dependency"><polygon points="1916.24,729.801,1917.902,720.094,1915.01,724.955,1910.148,722.063,1916.24,729.801" fill="#181818" style="stroke:#181818;stroke-width:1;stroke-linejoin:miter;stroke-miterlimit:10;"/><path d="M1463.044,611.166 C1463.014,611.349 1462.985,611.531 1462.956,611.714 C1462.899,612.079 1462.843,612.443 1462.789,612.806 C1461.049,624.417 1460.946,634.854 1464.913,639 C1496.284,671.786 1834.899,632.22 1872.913,657 C1897.94,673.314 1909.164,701.935 1915.01,724.955" style="stroke:#181818;stroke-width:1;" fill="none"/><text x="1466.913" y="634.495" fill="#000" font-size="13" textLength="426.931">SESSION_CHANGED / inp_publish(INP_PUB_PROMPT_WITHDRAWN);</text></g><?plantuml-src jLbjJoCv4lwUNs7OrG8ho0litEf0jr883KGRaYZ973gDHYsdswHRzDlPRZBeTlxxLPNT7GUImExChZGx6QVyLBbU7bSvUuNaYvIpX3_dfMOg5Pfdl770-bbHwebGULBgEC-O50luwvn5-P8LKYWbr34i9eB39yQpaEbIPWgMOCkJO76cSxOG2bQ50hp3K0In0WZ5skts1ze17_vvr6JJl9I1OFa3qxBK4Nl89UlT_Thg5aLBfQqNbapJvgSW-dm1c62Jo8JaMh1b31kZNEcMplD4jUOYuaznBlqq3qNIB9wRR58cGfspC0zKAnGgNcIrL6lYTQ_kl6OQDW7sfkGoD6VYWIQJ0vuaBC-IP_PGPdOjpbmhOxJIbxMPVf5BtOm03n2z9o6V6OamyIGo3PxHYealW0-OUGQdBtMGf-ASnI2Inl0jhzp7m9Cw4goNPrfyqURWeE8OPMCGdAjSpaLeVCvDU607rrKq5CHN2tdCmBDcZrh2YVAb29kiIu0KIFm6G8G420s0v5MqnK3MCQJ8mHSYPPsZSp8EZmimGOwkWoG1KC43Y8b8GXQ0vJ9F3YgW9QyJ9JmsoGCGbH4ButyfU5YT0c4nD6CXJooOemmqX5np2j05GK4w2qcVhBIRcEGpfZIun8Jdnb78MP1mfUA7EE2K-FNXD7y4Hyu5fATWOQmAheFec2aApZDRn00Edm1FyLJ0gTGIR5Z20I3aiaubMMRiqEGReF25v2ci9O9zE6es6fz-_inEJdvZbEzFSRPeDCZGrGBxNuEnIcmeIYrv0Yj6wkM_fr7ye6d7sie4JlhySl6or3hFsfkNEo-NfmMaCIn-hNLTwgnzYz4swYeJno8ByHoh_HjMP9uMbPsr6isbDj-yMCyBP_chWmCLeifKX6JNrmQ4ukJan5JVCX8GjfDl_GyWktMYBe5mX9FIm3IG118AnrGm_h6o5rYNvjmsA7FoA-2Pn60FCU102hkxY2mOVu2AjBiYK0CmeEAGok_ix0YWC-0GI3svNibEZK-WLh8WJc9koTpojY1YgYeA2p6ZP3N6SCSye-uVaAEhJ3ndbsr_uWsyxjHZdu3UV0lin-gmFnnNt_dJs_xrp1zxmwl-yEReCsiX5_gen5Tuh6hVuT75LlYzFurlp_yAjFCkcw-yGV_VtiIxgl4mg5ijxVozZdWd_7rtC1ZTWytiZp_O3i7UeD_x_Ir7URNEtM9dxvERVPmCTqauV0RI4wyt6lRwWmgqEWXin6ssj8UvJ47SqFstbxQN1T0koAh10RB7Exakt229WqU5boZUEQfPovzXtVACvGLs8oXQy0NM8DQF14AYdeOgsDoM6TpZbZYWxU4PLMzTXmAlO6Kh7ku_A5rX2_3q32gmyX9wpALkKp7ZYJUTcZGnEKKM7DRH3ZZ09Ruz53YJLbCk7wtywfirJPQsrvJilTB2Vlg9yB030X-yfNOEdKpcWw-nhV3HhQxQjrNjRTJbvDSMNtLCKVqTldA1zxOY4vbG1coqagvNBAw_6a_29_brsxpssxQPe6mtZje78eZlRDjVDerOo6n-I-vTHBhEZsGl5VyhdTyAXkq43axCU4gPTjFbcufka2YmDSYN6H24uHt32RyubB16izRxY2_2sXahA_2BoWXIKHbXsW93IfKnTWH0ZOgP-UqKMbOs0uCDnzLi2804jyPZSQOqDjXm35HEB5cFECtjINOx6bmPzo8c-BRAdAqvvZZ3RDxRiPiSONbd2vozQymnlijLuzurPcn6TrQt3avTE8ppwWOm7HY7_hLkwQhs3oCmeRJ3Zlh0kP70_leAgViw7ZxXyMoQuHrbhnNC8IDyRi9ctLEKyoHM4UNp-EEbRM2yuOmweulLdYymL-xQCl2kPxNy-bM_gu6eyEjxOBj4voq9xqqCxqs1isqIZkzDPw-eYSR6mAaSTlhhqQfjQ6F3a9bWb1gwS_tCP9xhOvWiuY02o23Y6PG8TGROCc0aLU64rgR1Bv2y5bMnZYbEzYX4uQJGax0XDfMr_QffRI3fZRo_IV20NThZjycC3hO-AJrn117CwsmXyxAex3wrhmVWAbMDH31A8Syzq5k5MeqqguS2XTEChHSxgj2e7z4hmQOpRcYGMZkkykqGdTUPjWEYKllAroyWQ00Wyz-njVsYMZPF3sisRm9vb_xEQpvsHf5T-WySXUT0PVWE1_GLqvk9oGG8S9Nr80GN3YA55_RsCT5rnrZ0B3FOu91SN8_A47ZBqyPoI3_RLPgxQEtjwiCHUpzFepKwmklADGOOBn25NetIsny3C97LQlwlN6DvtHOxPV1g6AfU9XLC_5cOGEdMpolhvFag7HnEghViOaT7Q3j1kaBlaTb5apEgO2SqEWAdqITytO1P24uly9621n4zK3BuLbRpaf6npcisggc4ydJrOcGyurp_rOXXc13k_nSxgpSbT-FcVVO8XH67o2A9kwHkQGmu2X8whP_9KLUTcxRJ8ax3fz9Lai4glTw4iKfZXOdDheK8vnnRGVCSQT-A6VuF210CeUMfTQfv7GOYN7F7hbjzF1dTZMV-QEmDlIj_EkjEwAvsdV9dje_6j7kb7LrSlStjohDTwBtHyBe_kLlPHyBWeLAGQE_EVkDF0Re_6gwVu7kRW6VSQC5ex1ZWA7zNoUxKtXtslC60sgwDk2-VJDx6sVIoijbVzaX-xxOxlF6kTckuxyzkhoRT-w4f-0h6_b1Wy8C4w3AiUzsve867gYB1Iy3y801D0Vui19-97zOUDHiDe0eGYXSHIQsUbU-9KAqYqsB56UlIa09aF15FiLY2w3d8FfH9ugiYpn-VOKBATNuI5VzjdXvl-UAi2NjkrrXBuUFpiodtHIdvF17sdfh3d1Q1l9OnXwbA2Or7IJV-ZW9zOKDWdmvdQZHQ1tliHqgt6t2-pjEayMc2xxwoHsgQlS-DVXOaPIZenui1duk4_OljJyUZqU__yI4W7sUGPTFHuECCupQzys_t6xthE15sdqBn_NrwFVyXDcjiVylFM4OCnGzQ_mS0?></g></svg>